<svg width="32" height="32" viewBox="0 0 32 32" fill="none" xmlns="http://www.w3.org/2000/svg">
<path fill-rule="evenodd" clip-rule="evenodd" d="M23 2C26.866 2 30 5.13401 30 9C30 12.1708 27.8912 14.8473 25 15.708V16.291C27.8913 17.1517 30 19.8291 30 23C30 26.866 26.866 30 23 30C19.8291 30 17.1517 27.8913 16.291 25H15.709C14.8483 27.8913 12.1709 30 9 30C5.13401 30 2 26.866 2 23C2 19.8291 4.10867 17.1517 7 16.291V15.708C4.10881 14.8473 2 12.1708 2 9C2 5.13401 5.13401 2 9 2C12.1709 2 14.8483 4.10867 15.709 7H16.291C17.1517 4.10867 19.8291 2 23 2ZM15.709 11C15.037 13.2574 13.2574 15.036 11 15.708V16.291C13.2575 16.963 15.037 18.7425 15.709 21H16.291C16.963 18.7425 18.7425 16.963 21 16.291V15.708C18.7426 15.036 16.963 13.2574 16.291 11H15.709Z" fill="url(#paint0_linear_2094_855)"/>
<defs>
<linearGradient id="paint0_linear_2094_855" x1="2.5" y1="4" x2="30" y2="30" gradientUnits="userSpaceOnUse">
<stop stop-color="#2B79ED"/>
<stop offset="0.702134" stop-color="#71A6F5"/>
<stop offset="1" stop-color="#B6D3FD"/>
</linearGradient>
</defs>
</svg>
